<?xml version="1.0" standalone="no"?>
<!DOCTYPE svg PUBLIC "-//W3C//DTD SVG 20010904//EN"
 "http://www.w3.org/TR/2001/REC-SVG-20010904/DTD/svg10.dtd">
<svg version="1.0" xmlns="http://www.w3.org/2000/svg"
 width="1200.000000pt" height="1200.000000pt" viewBox="0 0 1200.000000 1200.000000"
 preserveAspectRatio="xMidYMid meet">
<metadata>
Created by potrace 1.14, written by Peter Selinger 2001-2017
</metadata>
<g transform="translate(0.000000,1200.000000) scale(0.100000,-0.100000)"
fill="#000000" stroke="none">
<path d="M6395 7796 c-58 -25 -95 -80 -110 -166 0 -3 -34 -106 -74 -230 -40
-124 -111 -344 -158 -490 -47 -146 -107 -332 -133 -415 -27 -82 -90 -278 -140
-435 -50 -157 -98 -304 -106 -326 l-15 -42 -752 0 -752 -1 -317 211 -317 210
87 67 c48 36 103 77 122 91 19 13 37 27 40 30 3 3 79 62 170 130 91 68 237
178 325 245 88 67 255 192 370 280 230 173 276 212 310 266 94 146 72 344 -51
465 -105 104 -257 136 -396 84 -33 -12 -103 -56 -170 -107 -62 -48 -187 -143
-278 -213 -91 -69 -215 -164 -276 -211 -60 -46 -278 -212 -483 -369 -720 -549
-694 -528 -730 -599 -50 -97 -59 -201 -26 -302 28 -88 79 -146 193 -223 39
-27 72 -51 72 -52 0 -2 -230 -3 -510 -2 -281 0 -513 -2 -516 -5 -5 -4 88 -149
106 -167 3 -3 39 -54 79 -115 41 -60 128 -188 193 -284 l119 -173 -96 -142
c-53 -77 -130 -190 -172 -251 -41 -60 -113 -164 -158 -231 l-83 -121 4237 0
4238 0 -101 148 c-56 82 -130 190 -165 241 -35 51 -104 153 -153 225 l-89 133
146 212 c81 117 191 278 246 358 55 80 104 152 109 160 7 13 -64 15 -621 13
l-628 -2 107 82 c59 45 134 102 167 127 148 113 204 187 224 295 23 124 -20
257 -110 341 -27 25 -1323 893 -1364 914 -5 3 -104 68 -220 145 -242 162 -258
169 -375 189 -14 2 -49 0 -78 -5 -304 -48 -426 -430 -203 -635 25 -24 338
-237 695 -474 357 -237 645 -435 640 -439 -5 -5 -103 -79 -219 -166 -115 -87
-223 -169 -240 -182 -37 -29 -30 -24 -152 -115 l-101 -76 -866 0 -866 0 6 26
c4 15 15 50 24 77 10 28 32 93 48 145 58 182 204 635 222 690 10 30 34 105 53
165 97 304 221 688 243 751 19 55 24 82 19 115 -16 110 -140 179 -240 135z"/>
</g>
</svg>
